<svg width="853" height="203" viewBox="0 0 853 203" fill="none" xmlns="http://www.w3.org/2000/svg">
<g filter="url(#filter0_d_0_1)">
<path d="M50.5518 65.085C56.818 62.7249 63.2471 61.5449 69.8389 61.5449C76.4307 61.5449 83.2666 63.498 90.3467 67.4043C97.5081 71.3105 101.414 73.2637 102.065 73.2637C102.716 73.2637 107.111 71.2699 115.249 67.2822C123.387 63.2946 130.711 61.3008 137.222 61.3008C143.813 61.3008 149.225 62.6842 153.457 65.4512C157.77 68.1367 161.025 71.3512 163.223 75.0947C167.373 82.2562 169.448 98.166 169.448 122.824C169.448 133.892 169.53 140.24 169.692 141.867C169.937 143.413 170.506 146.221 171.401 150.29C172.378 154.278 172.866 157.574 172.866 160.178C172.866 162.701 171.808 165.345 169.692 168.112C167.576 170.879 164.769 172.263 161.27 172.263C154.352 172.263 150.243 169.455 148.94 163.84C147.964 159.771 146.825 147.889 145.522 128.195C144.302 108.501 142.959 96.9453 141.494 93.5273C138.564 86.3659 132.339 82.7852 122.817 82.7852C116.714 82.7852 111.953 86.61 108.535 94.2598C103.571 105.246 101.089 120.871 101.089 141.135L102.31 158.713C102.31 164.898 100.031 169.577 95.4736 172.751C92.5439 174.785 88.6377 175.803 83.7549 175.803C78.9535 175.803 75.7796 175.314 74.2334 174.338C71.5479 172.71 70.2051 169.252 70.2051 163.962C70.2051 162.985 70.9782 158.998 72.5244 151.999C74.152 144.919 74.9658 133.444 74.9658 117.575C74.9658 101.625 73.7858 91.4928 71.4258 87.1797C69.0658 82.7852 64.9561 80.5879 59.0967 80.5879C53.2373 80.5879 48.029 82.5817 43.4717 86.5693C38.9958 90.557 35.6999 94.9108 33.584 99.6309C31.5495 104.351 29.7184 115.581 28.0908 133.322C26.5446 151.063 25.446 161.236 24.7949 163.84C23.6556 168.316 20.3597 170.554 14.9072 170.554C9.53613 170.554 5.83333 168.967 3.79883 165.793C1.8457 162.538 0.869141 158.591 0.869141 153.952L1.47949 149.68L3.79883 141.257C4.77539 137.351 5.34505 132.793 5.50781 127.585C6.72852 95.277 7.66439 76.8444 8.31543 72.2871C8.96647 67.7298 11.8962 65.4512 17.1045 65.4512L35.293 68.5029C39.1992 68.5029 44.2855 67.3636 50.5518 65.085ZM295.913 49.582V47.3848C295.913 39.1654 293.065 32.9398 287.368 28.708C281.753 24.4762 274.307 22.3604 265.029 22.3604H258.071C251.805 22.3604 247.614 23.0928 245.498 24.5576C243.382 26.0225 242.324 28.9115 242.324 33.2246C241.999 35.8288 241.836 37.4564 241.836 38.1074L240.615 60.6904V62.7656L240.249 68.8691V70.9443L240.127 72.8975C240.127 76.0713 240.819 78.1465 242.202 79.123C243.667 80.0996 246.475 80.5879 250.625 80.5879H255.63L256.606 80.4658H257.583L260.635 80.3438L266.738 79.8555C275.202 79.8555 282.16 76.8444 287.612 70.8223C293.146 64.8001 295.913 57.7201 295.913 49.582ZM236.831 151.877C236.831 155.295 237.93 157.614 240.127 158.835C242.406 160.056 247.899 160.666 256.606 160.666H258.926C272.923 160.666 283.136 158.143 289.565 153.098C297.622 146.75 301.65 138.164 301.65 127.341V124.899C301.65 115.785 298.477 108.583 292.129 103.293C285.863 97.9219 276.951 95.2363 265.396 95.2363H255.02C252.578 95.4805 250.015 95.6025 247.329 95.6025C241.632 95.6025 238.784 99.7936 238.784 108.176C238.459 111.268 238.296 113.181 238.296 113.913L237.319 132.468V134.787L236.831 147.36V151.877ZM320.938 46.4082C320.938 59.3477 316.095 70.1305 306.411 78.7568C301.691 82.9072 299.331 85.1452 299.331 85.4707C299.331 85.7962 302.139 87.8307 307.754 91.5742C321.019 100.282 327.651 112.774 327.651 129.05C327.651 145.244 320.612 157.94 306.533 167.136C295.303 174.541 277.44 178.244 252.944 178.244H250.015L247.085 178.122H244.155C225.926 178.122 214.736 177.674 210.586 176.779C206.436 175.803 204.36 174.175 204.36 171.896V169.943C204.36 167.99 205.581 164.572 208.022 159.689C209.162 156.434 210.016 152.121 210.586 146.75C212.865 125.347 214.004 100.892 214.004 73.3857L214.614 56.0518L214.858 50.4365L214.98 41.8916C214.98 34.2419 214.411 28.3825 213.271 24.3135L212.051 20.2852C211.481 18.332 211.196 16.501 211.196 14.792C211.196 11.7809 213.394 9.70573 217.788 8.56641C222.183 7.42708 230.687 6.85742 243.301 6.85742L246.108 6.73535C248.062 6.65397 250.015 6.61328 251.968 6.61328L263.809 6.36914C301.895 6.36914 320.938 19.7155 320.938 46.4082ZM663.345 124.533C656.102 124.533 652.48 134.095 652.48 153.22C652.48 161.521 650.771 167.136 647.354 170.065C643.936 172.995 639.826 174.46 635.024 174.46C630.223 174.46 626.805 173.646 624.771 172.019C622.817 170.391 621.841 167.339 621.841 162.863C621.841 162.538 622.288 159.323 623.184 153.22C624.079 147.116 625.218 128.155 626.602 96.335C627.985 64.4339 628.677 44.9434 628.677 37.8633C628.677 30.7832 628.473 26.1852 628.066 24.0693C627.741 21.8721 627.171 19.2272 626.357 16.1348C625.625 13.0423 625.259 11.0892 625.259 10.2754C625.259 6.69466 626.439 4.25326 628.799 2.95117C631.24 1.56771 635.269 0.875977 640.884 0.875977C646.58 0.875977 650.324 2.34082 652.114 5.27051C653.986 8.2002 654.922 14.1003 654.922 22.9707L653.335 74.7285C653.335 89.5397 655.044 96.9453 658.462 96.9453C661.147 96.9453 667.739 91.4115 678.237 80.3438C688.817 69.276 694.229 63.6608 694.473 63.498C697.728 61.2194 702.651 60.0801 709.243 60.0801C715.835 60.0801 719.131 61.7077 719.131 64.9629C719.131 66.5905 713.882 73.4671 703.384 85.5928C692.886 97.7184 687.637 106.63 687.637 112.326C687.637 115.419 693.618 125.591 705.581 142.844C709.894 149.029 713.963 154.4 717.788 158.957C721.694 163.433 723.647 166.647 723.647 168.601C723.647 172.67 719.863 174.704 712.295 174.704C704.808 174.704 699.03 172.548 694.961 168.234C693.984 167.176 691.706 163.596 688.125 157.492C684.544 151.389 682.021 147.116 680.557 144.675C672.174 131.247 666.437 124.533 663.345 124.533ZM760.513 109.885C755.549 104.839 753.066 97.7591 753.066 88.6445C753.066 79.5299 757.135 71.7174 765.273 65.207C773.411 58.6152 783.503 55.3193 795.547 55.3193H798.721C809.382 55.3193 817.845 56.8249 824.111 59.8359C830.459 62.847 833.633 67.3636 833.633 73.3857C833.633 79.3265 830.988 82.2969 825.698 82.2969C824.315 82.2969 820.409 80.6693 813.979 77.4141C807.55 74.0775 801.488 72.4092 795.791 72.4092C790.094 72.4092 785.496 73.7113 781.997 76.3154C778.579 78.8382 776.87 82.3376 776.87 86.8135C776.87 91.2894 779.271 95.1956 784.072 98.5322C786.839 100.485 793.35 103.578 803.604 107.81C813.939 112.041 821.304 116.11 825.698 120.017C832.778 126.283 836.318 134.299 836.318 144.064C836.318 153.83 832.168 162.212 823.867 169.211C815.566 176.128 804.784 179.587 791.519 179.587H788.345C774.998 179.587 764.989 177.674 758.315 173.85C751.642 169.943 748.306 164.898 748.306 158.713C748.306 152.447 750.91 149.313 756.118 149.313C757.827 149.313 762.262 151.511 769.424 155.905C776.667 160.3 783.747 162.497 790.664 162.497C797.663 162.497 802.912 161.032 806.411 158.103C809.91 155.091 811.66 151.348 811.66 146.872C811.66 142.315 809.463 138.327 805.068 134.909C802.708 133.037 795.954 129.66 784.805 124.777C773.656 119.813 765.558 114.849 760.513 109.885Z" fill="black"/>
<path d="M376.724 126.486C376.724 137.147 379.165 146.018 384.048 153.098C388.931 160.178 394.912 163.718 401.992 163.718H405.654C414.036 163.718 421.117 159.486 426.895 151.022C432.754 142.559 435.684 131.288 435.684 117.209V109.152C435.684 98.2474 433.283 89.3363 428.481 82.4189C423.761 75.4202 417.658 71.9209 410.171 71.9209H407.729C399.022 71.9209 391.698 76.234 385.757 84.8604C379.897 93.4867 376.968 103.781 376.968 115.744L376.724 118.552V126.486ZM404.312 180.319H400.405C386.164 180.319 374.567 175.355 365.615 165.427C356.663 155.498 352.188 141.42 352.188 123.19L352.31 121.115C352.31 101.096 357.599 85.3079 368.179 73.752C373.713 67.6484 380.02 63.1725 387.1 60.3242C394.261 57.3945 401.056 55.9297 407.485 55.9297H413.467C420.628 55.9297 427.505 57.5166 434.097 60.6904C452.977 69.805 462.417 86.9762 462.417 112.204V114.157C462.336 122.377 460.993 130.718 458.389 139.182C453.18 155.865 443.171 167.665 428.359 174.582C420.14 178.407 412.124 180.319 404.312 180.319ZM509.048 126.486C509.048 137.147 511.489 146.018 516.372 153.098C521.255 160.178 527.236 163.718 534.316 163.718H537.979C546.361 163.718 553.441 159.486 559.219 151.022C565.078 142.559 568.008 131.288 568.008 117.209V109.152C568.008 98.2474 565.607 89.3363 560.806 82.4189C556.086 75.4202 549.982 71.9209 542.495 71.9209H540.054C531.346 71.9209 524.022 76.234 518.081 84.8604C512.222 93.4867 509.292 103.781 509.292 115.744L509.048 118.552V126.486ZM536.636 180.319H532.729C518.488 180.319 506.891 175.355 497.939 165.427C488.988 155.498 484.512 141.42 484.512 123.19L484.634 121.115C484.634 101.096 489.924 85.3079 500.503 73.752C506.037 67.6484 512.344 63.1725 519.424 60.3242C526.585 57.3945 533.381 55.9297 539.81 55.9297H545.791C552.952 55.9297 559.829 57.5166 566.421 60.6904C585.301 69.805 594.741 86.9762 594.741 112.204V114.157C594.66 122.377 593.317 130.718 590.713 139.182C585.505 155.865 575.495 167.665 560.684 174.582C552.464 178.407 544.448 180.319 536.636 180.319Z" fill="#0099FF"/>
<path d="M50.5518 65.085L51.4061 67.4344L51.4195 67.4296L51.4329 67.4245L50.5518 65.085ZM90.3467 67.4043L89.139 69.5933L89.1495 69.599L90.3467 67.4043ZM115.249 67.2822L114.149 65.0373L115.249 67.2822ZM153.457 65.4512L152.089 67.5436L152.112 67.5588L152.136 67.5734L153.457 65.4512ZM163.223 75.0947L165.386 73.8411L165.379 73.8292L163.223 75.0947ZM169.692 141.867L167.205 142.116L167.212 142.187L167.223 142.257L169.692 141.867ZM171.401 150.29L168.96 150.827L168.966 150.856L168.973 150.885L171.401 150.29ZM148.94 163.84L151.376 163.275L151.374 163.266L151.371 163.256L148.94 163.84ZM145.522 128.195L143.027 128.35L143.028 128.36L145.522 128.195ZM141.494 93.5273L139.18 94.4739L139.188 94.4931L139.196 94.5121L141.494 93.5273ZM108.535 94.2598L110.813 95.2892L110.818 95.2796L108.535 94.2598ZM101.089 141.135H98.5889V141.221L98.5949 141.308L101.089 141.135ZM102.31 158.713H104.81V158.626L104.804 158.54L102.31 158.713ZM95.4736 172.751L96.8996 174.804L96.9024 174.802L95.4736 172.751ZM74.2334 174.338L75.5684 172.224L75.5489 172.212L75.5292 172.2L74.2334 174.338ZM72.5244 151.999L70.088 151.439L70.0856 151.449L70.0833 151.46L72.5244 151.999ZM71.4258 87.1797L69.2233 88.3625L69.2279 88.3711L69.2326 88.3797L71.4258 87.1797ZM43.4717 86.5693L41.8254 84.6879L41.817 84.6953L41.8087 84.7027L43.4717 86.5693ZM33.584 99.6309L31.3027 98.6082L31.2953 98.6247L31.2882 98.6413L33.584 99.6309ZM28.0908 133.322L25.6012 133.094L25.6003 133.105L28.0908 133.322ZM24.7949 163.84L27.2177 164.457L27.2203 164.446L24.7949 163.84ZM3.79883 165.793L1.6551 167.079L1.67415 167.111L1.69413 167.142L3.79883 165.793ZM0.869141 153.952L-1.60573 153.599L-1.63086 153.774V153.952H0.869141ZM1.47949 149.68L-0.930798 149.016L-0.972935 149.169L-0.995382 149.326L1.47949 149.68ZM3.79883 141.257L6.20912 141.921L6.21699 141.892L6.22418 141.863L3.79883 141.257ZM5.50781 127.585L3.0096 127.491L3.00929 127.499L3.00903 127.507L5.50781 127.585ZM17.1045 65.4512L17.5182 62.9856L17.3128 62.9512H17.1045V65.4512ZM35.293 68.5029L34.8793 70.9685L35.0847 71.0029H35.293V68.5029ZM51.4329 67.4245C57.4221 65.1689 63.5529 64.0449 69.8389 64.0449V59.0449C62.9413 59.0449 56.214 60.281 49.6706 62.7454L51.4329 67.4245ZM69.8389 64.0449C75.9226 64.0449 82.3457 65.8452 89.139 69.5932L91.5544 65.2154C84.1875 61.1509 76.9387 59.0449 69.8389 59.0449V64.0449ZM89.1495 69.599C92.7382 71.5565 95.536 73.0382 97.5294 74.0349C98.5223 74.5313 99.3459 74.9227 99.982 75.1953C100.297 75.3305 100.602 75.4519 100.878 75.5438C101.062 75.6052 101.538 75.7637 102.065 75.7637V70.7637C102.43 70.7637 102.641 70.8611 102.459 70.8004C102.369 70.7703 102.206 70.7086 101.952 70.5996C101.448 70.3839 100.726 70.0429 99.7655 69.5628C97.8527 68.6063 95.1166 67.1584 91.5438 65.2096L89.1495 69.599ZM102.065 75.7637C102.577 75.7637 103.056 75.6114 103.234 75.5553C103.514 75.4674 103.833 75.3497 104.174 75.2149C104.862 74.9431 105.77 74.5496 106.883 74.0449C109.114 73.0325 112.273 71.5242 116.349 69.5272L114.149 65.0373C110.087 67.0278 106.98 68.5103 104.817 69.4917C103.732 69.984 102.911 70.3381 102.337 70.5648C102.047 70.6792 101.853 70.7484 101.736 70.7851C101.518 70.8537 101.716 70.7637 102.065 70.7637V75.7637ZM116.349 69.5272C124.271 65.6455 131.212 63.8008 137.222 63.8008V58.8008C130.211 58.8008 122.503 60.9437 114.149 65.0373L116.349 69.5272ZM137.222 63.8008C143.473 63.8008 148.371 65.1124 152.089 67.5436L154.825 63.3587C150.08 60.2561 144.154 58.8008 137.222 58.8008V63.8008ZM152.136 67.5734C156.164 70.0816 159.106 73.0207 161.067 76.3602L165.379 73.8292C162.944 69.6818 159.376 66.1918 154.778 63.3289L152.136 67.5734ZM161.06 76.3483C162.878 79.485 164.385 84.8449 165.413 92.7215C166.431 100.529 166.948 110.552 166.948 122.824H171.948C171.948 110.438 171.428 100.178 170.371 92.0748C169.323 84.0416 167.718 77.8659 165.386 73.8412L161.06 76.3483ZM166.948 122.824C166.948 133.806 167.026 140.328 167.205 142.116L172.18 141.618C172.033 140.151 171.948 133.978 171.948 122.824H166.948ZM167.223 142.257C167.48 143.887 168.066 146.764 168.96 150.827L173.843 149.753C172.947 145.678 172.393 142.94 172.162 141.477L167.223 142.257ZM168.973 150.885C169.926 154.776 170.366 157.854 170.366 160.178H175.366C175.366 157.293 174.83 153.78 173.83 149.695L168.973 150.885ZM170.366 160.178C170.366 161.977 169.614 164.1 167.706 166.594L171.678 169.631C174.003 166.591 175.366 163.424 175.366 160.178H170.366ZM167.706 166.594C166.066 168.739 163.994 169.763 161.27 169.763V174.763C165.543 174.763 169.087 173.02 171.678 169.631L167.706 166.594ZM161.27 169.763C158.124 169.763 155.916 169.122 154.41 168.093C152.954 167.098 151.909 165.575 151.376 163.275L146.505 164.405C147.274 167.72 148.935 170.408 151.589 172.221C154.193 174 157.498 174.763 161.27 174.763V169.763ZM151.371 163.256C150.93 161.418 150.414 157.602 149.842 151.638C149.276 145.733 148.667 137.866 148.017 128.03L143.028 128.36C143.68 138.218 144.292 146.14 144.865 152.116C145.432 158.034 145.974 162.192 146.509 164.423L151.371 163.256ZM148.018 128.041C147.406 118.175 146.762 110.312 146.083 104.469C145.744 101.549 145.393 99.1061 145.027 97.156C144.67 95.2505 144.272 93.6621 143.792 92.5425L139.196 94.5121C139.449 95.1016 139.768 96.2394 140.113 98.0774C140.449 99.8707 140.784 102.188 141.117 105.046C141.78 110.76 142.418 118.522 143.027 128.35L148.018 128.041ZM143.808 92.5808C142.15 88.5283 139.507 85.3929 135.874 83.3036C132.278 81.2353 127.878 80.2852 122.817 80.2852V85.2852C127.279 85.2852 130.752 86.1254 133.381 87.6378C135.974 89.1292 137.908 91.3649 139.18 94.4739L143.808 92.5808ZM122.817 80.2852C115.357 80.2852 109.896 85.0862 106.253 93.2399L110.818 95.2796C114.01 88.1339 118.071 85.2852 122.817 85.2852V80.2852ZM106.257 93.2303C101.08 104.688 98.5889 120.726 98.5889 141.135H103.589C103.589 121.016 106.062 105.804 110.813 95.2892L106.257 93.2303ZM98.5949 141.308L99.8156 158.886L104.804 158.54L103.583 140.962L98.5949 141.308ZM99.8096 158.713C99.8096 164.188 97.8467 168.052 94.0449 170.699L96.9024 174.802C102.215 171.103 104.81 165.607 104.81 158.713H99.8096ZM94.0476 170.698C91.6655 172.352 88.3114 173.303 83.7549 173.303V178.303C88.964 178.303 93.4224 177.219 96.8996 174.804L94.0476 170.698ZM83.7549 173.303C81.4257 173.303 79.5695 173.183 78.1536 172.966C76.6879 172.74 75.9094 172.44 75.5684 172.224L72.8984 176.452C74.1036 177.213 75.6852 177.645 77.3933 177.907C79.1512 178.178 81.2827 178.303 83.7549 178.303V173.303ZM75.5292 172.2C73.9973 171.272 72.7051 168.99 72.7051 163.962H67.7051C67.7051 169.513 69.0984 174.149 72.9376 176.476L75.5292 172.2ZM72.7051 163.962C72.7051 163.978 72.7054 163.915 72.7258 163.732C72.7447 163.564 72.7753 163.338 72.8203 163.05C72.9102 162.472 73.0487 161.697 73.2392 160.715C73.6197 158.752 74.1942 156.03 74.9655 152.538L70.0833 151.46C69.3084 154.967 68.7232 157.738 68.3306 159.763C67.9625 161.661 67.7051 163.177 67.7051 163.962H72.7051ZM74.9609 152.559C76.6565 145.183 77.4658 133.465 77.4658 117.575H72.4658C72.4658 133.424 71.6475 144.655 70.088 151.439L74.9609 152.559ZM77.4658 117.575C77.4658 109.551 77.1696 102.924 76.564 97.7242C75.9682 92.608 75.0447 88.5854 73.6189 85.9797L69.2326 88.3797C70.1669 90.0871 71.0135 93.2871 71.5976 98.3026C72.172 103.235 72.4658 109.649 72.4658 117.575H77.4658ZM73.6283 85.9969C70.748 80.6336 65.6829 78.0879 59.0967 78.0879V83.0879C64.2292 83.0879 67.3835 84.9367 69.2233 88.3625L73.6283 85.9969ZM59.0967 78.0879C52.6099 78.0879 46.8217 80.3161 41.8254 84.6879L45.1179 88.4508C49.2362 84.8473 53.8647 83.0879 59.0967 83.0879V78.0879ZM41.8087 84.7027C37.111 88.8879 33.584 93.5192 31.3027 98.6082L35.8653 100.653C37.8157 96.3024 40.8805 92.2261 45.1347 88.436L41.8087 84.7027ZM31.2882 98.6413C30.1397 101.306 29.136 105.557 28.2174 111.191C27.2888 116.887 26.4178 124.194 25.6013 133.094L30.5804 133.551C31.3914 124.71 32.2498 117.531 33.1522 111.996C34.0647 106.4 34.9937 102.676 35.8798 100.62L31.2882 98.6413ZM25.6003 133.105C24.8277 141.969 24.1682 148.928 23.6216 153.989C23.066 159.134 22.6443 162.135 22.3696 163.234L27.2203 164.446C27.5966 162.941 28.0497 159.553 28.5927 154.526C29.1448 149.414 29.8077 142.416 30.5814 133.539L25.6003 133.105ZM22.3722 163.223C21.9277 164.969 21.1272 166.085 20.0641 166.807C18.9576 167.558 17.3123 168.054 14.9072 168.054V173.054C17.9546 173.054 20.6835 172.43 22.8729 170.944C25.1057 169.427 26.5228 167.186 27.2177 164.457L22.3722 163.223ZM14.9072 168.054C9.99408 168.054 7.29995 166.622 5.90353 164.444L1.69413 167.142C4.36672 171.311 9.07818 173.054 14.9072 173.054V168.054ZM5.94256 164.507C4.26931 161.718 3.36914 158.238 3.36914 153.952H-1.63086C-1.63086 158.944 -0.577908 163.358 1.6551 167.079L5.94256 164.507ZM3.34401 154.306L3.95437 150.033L-0.995382 149.326L-1.60573 153.599L3.34401 154.306ZM3.88978 150.343L6.20912 141.921L1.38854 140.593L-0.930798 149.016L3.88978 150.343ZM6.22418 141.863C7.25445 137.742 7.8398 133.001 8.00659 127.663L3.00903 127.507C2.85031 132.586 2.29633 136.959 1.37347 140.65L6.22418 141.863ZM8.00603 127.679C9.23023 95.2788 10.1631 77.0313 10.7903 72.6407L5.84056 71.9336C5.16571 76.6575 4.2268 95.2752 3.0096 127.491L8.00603 127.679ZM10.7903 72.6407C11.0474 70.841 11.6987 69.7847 12.5358 69.1335C13.4153 68.4495 14.8367 67.9512 17.1045 67.9512V62.9512C14.1639 62.9512 11.5163 63.5922 9.46613 65.1868C7.37361 66.8143 6.2345 69.1759 5.84056 71.9336L10.7903 72.6407ZM16.6908 67.9167L34.8793 70.9685L35.7066 66.0374L17.5182 62.9856L16.6908 67.9167ZM35.293 71.0029C39.6259 71.0029 45.0313 69.7526 51.4061 67.4344L49.6974 62.7355C43.5397 64.9746 38.7726 66.0029 35.293 66.0029V71.0029ZM287.368 28.708L285.864 30.7045L285.87 30.7097L285.877 30.7149L287.368 28.708ZM242.324 33.2246L244.805 33.5347L244.824 33.3803V33.2246H242.324ZM241.836 38.1074L244.332 38.2424L244.336 38.1749V38.1074H241.836ZM240.615 60.6904L238.119 60.5555L238.115 60.6229V60.6904H240.615ZM240.615 62.7656L243.111 62.9154L243.115 62.8406V62.7656H240.615ZM240.249 68.8691L237.754 68.7194L237.749 68.7942V68.8691H240.249ZM240.249 70.9443L242.744 71.1003L242.749 71.0224V70.9443H240.249ZM240.127 72.8975L237.632 72.7415L237.627 72.8194V72.8975H240.127ZM242.202 79.123L240.76 81.1655L240.788 81.1847L240.815 81.2032L242.202 79.123ZM255.63 80.5879V83.0879H255.786L255.94 83.0686L255.63 80.5879ZM256.606 80.4658V77.9658H256.451L256.296 77.9851L256.606 80.4658ZM257.583 80.4658V82.9658H257.633L257.683 82.9638L257.583 80.4658ZM260.635 80.3438L260.735 82.8418L260.784 82.8398L260.834 82.8358L260.635 80.3438ZM266.738 79.8555V77.3555H266.638L266.539 77.3634L266.738 79.8555ZM287.612 70.8223L285.771 69.1307L285.765 69.1375L285.759 69.1443L287.612 70.8223ZM240.127 158.835L238.913 161.02L238.93 161.03L238.946 161.039L240.127 158.835ZM289.565 153.098L291.109 155.064L291.113 155.061L289.565 153.098ZM292.129 103.293L290.502 105.191L290.515 105.202L290.528 105.214L292.129 103.293ZM255.02 95.2363V92.7363H254.895L254.771 92.7487L255.02 95.2363ZM238.784 108.176L241.27 108.437L241.284 108.307V108.176H238.784ZM238.296 113.913L240.792 114.044L240.796 113.979V113.913H238.296ZM237.319 132.468L234.823 132.336L234.819 132.402V132.468H237.319ZM237.319 134.787L239.817 134.884L239.819 134.836V134.787H237.319ZM236.831 147.36L234.333 147.263L234.331 147.312V147.36H236.831ZM306.411 78.7568L308.062 80.6343L308.068 80.629L308.074 80.6236L306.411 78.7568ZM307.754 91.5742L306.367 93.6543L306.375 93.6593L306.382 93.6642L307.754 91.5742ZM306.533 167.136L305.166 165.043L305.157 165.049L306.533 167.136ZM250.015 178.244L249.911 180.742L249.963 180.744H250.015V178.244ZM247.085 178.122L247.189 175.624L247.137 175.622H247.085V178.122ZM210.586 176.779L210.013 179.213L210.036 179.218L210.059 179.223L210.586 176.779ZM208.022 159.689L210.259 160.807L210.33 160.665L210.382 160.515L208.022 159.689ZM210.586 146.75L208.1 146.485L208.1 146.486L210.586 146.75ZM214.004 73.3857L211.505 73.2978L211.504 73.3417V73.3857H214.004ZM214.614 56.0518L212.117 55.9432L212.116 55.9535L212.116 55.9638L214.614 56.0518ZM214.858 50.4365L217.356 50.5451L217.358 50.5087L217.358 50.4722L214.858 50.4365ZM214.98 41.8916L217.48 41.9273L217.48 41.9095V41.8916H214.98ZM213.271 24.3135L215.679 23.6394L215.672 23.6139L215.664 23.5885L213.271 24.3135ZM212.051 20.2852L209.651 20.9852L209.654 20.9977L209.658 21.0102L212.051 20.2852ZM243.301 6.85742V9.35742H243.355L243.409 9.35506L243.301 6.85742ZM246.108 6.73535L246.004 4.23751L246 4.23771L246.108 6.73535ZM251.968 6.61328V9.11328H251.994L252.019 9.11275L251.968 6.61328ZM263.809 6.36914V3.86914H263.783L263.757 3.86967L263.809 6.36914ZM298.413 49.582V47.3848H293.413V49.582H298.413ZM298.413 47.3848C298.413 38.5169 295.297 31.4835 288.859 26.7011L285.877 30.7149C290.833 34.396 293.413 39.8138 293.413 47.3848H298.413ZM288.873 26.7115C282.704 22.0623 274.677 19.8604 265.029 19.8604V24.8604C273.937 24.8604 280.802 26.8902 285.864 30.7045L288.873 26.7115ZM265.029 19.8604H258.071V24.8604H265.029V19.8604ZM258.071 19.8604C254.855 19.8604 252.085 20.0473 249.798 20.447C247.55 20.8399 245.563 21.4717 244.075 22.5021L246.921 26.6131C247.549 26.1787 248.716 25.7119 250.659 25.3723C252.563 25.0396 255.022 24.8604 258.071 24.8604V19.8604ZM244.075 22.5021C240.93 24.6797 239.824 28.647 239.824 33.2246H244.824C244.824 29.1759 245.835 27.3653 246.921 26.6131L244.075 22.5021ZM239.844 32.9145C239.525 35.4599 239.336 37.2652 239.336 38.1074H244.336C244.336 37.6475 244.472 36.1976 244.805 33.5347L239.844 32.9145ZM239.34 37.9725L238.119 60.5555L243.112 60.8254L244.332 38.2424L239.34 37.9725ZM238.115 60.6904V62.7656H243.115V60.6904H238.115ZM238.12 62.6159L237.754 68.7194L242.745 69.0189L243.111 62.9154L238.12 62.6159ZM237.749 68.8691V70.9443H242.749V68.8691H237.749ZM237.754 70.7884L237.632 72.7415L242.622 73.0534L242.744 71.1003L237.754 70.7884ZM237.627 72.8975C237.627 76.2108 238.308 79.4344 240.76 81.1655L243.644 77.0806C243.329 76.8586 242.627 75.9318 242.627 72.8975H237.627ZM240.815 81.2032C241.962 81.9673 243.419 82.4135 244.978 82.6847C246.571 82.9618 248.465 83.0879 250.625 83.0879V78.0879C248.635 78.0879 247.049 77.9699 245.835 77.7587C244.587 77.5416 243.908 77.2553 243.589 77.0429L240.815 81.2032ZM250.625 83.0879H255.63V78.0879H250.625V83.0879ZM255.94 83.0686L256.917 82.9465L256.296 77.9851L255.32 78.1072L255.94 83.0686ZM256.606 82.9658H257.583V77.9658H256.606V82.9658ZM257.683 82.9638L260.735 82.8418L260.535 77.8457L257.483 77.9678L257.683 82.9638ZM260.834 82.8358L266.938 82.3475L266.539 77.3634L260.435 77.8517L260.834 82.8358ZM266.738 82.3555C275.874 82.3555 283.517 79.0701 289.466 72.5002L285.759 69.1443C280.803 74.6187 274.529 77.3555 266.738 77.3555V82.3555ZM289.453 72.5138C295.409 66.0329 298.413 58.35 298.413 49.582H293.413C293.413 57.0901 290.884 63.5673 285.771 69.1307L289.453 72.5138ZM234.331 151.877C234.331 155.831 235.643 159.204 238.913 161.02L241.341 156.65C240.217 156.025 239.331 154.759 239.331 151.877H234.331ZM238.946 161.039C240.538 161.891 242.895 162.384 245.68 162.693C248.554 163.012 252.206 163.166 256.606 163.166V158.166C252.299 158.166 248.85 158.014 246.232 157.724C243.524 157.423 241.995 157 241.308 156.631L238.946 161.039ZM256.606 163.166H258.926V158.166H256.606V163.166ZM258.926 163.166C273.122 163.166 284.022 160.626 291.109 155.064L288.022 151.131C282.251 155.66 272.724 158.166 258.926 158.166V163.166ZM291.113 155.061C299.808 148.21 304.15 138.881 304.15 127.341H299.15C299.15 137.447 295.436 145.29 288.018 151.134L291.113 155.061ZM304.15 127.341V124.899H299.15V127.341H304.15ZM304.15 124.899C304.15 115.129 300.71 107.19 293.729 101.372L290.528 105.214C296.243 109.975 299.15 116.44 299.15 124.899H304.15ZM293.756 101.395C286.884 95.5048 277.311 92.7363 265.396 92.7363V97.7363C276.592 97.7363 284.841 100.339 290.502 105.191L293.756 101.395ZM265.396 92.7363H255.02V97.7363H265.396V92.7363ZM254.771 92.7487C252.419 92.9839 249.939 93.1025 247.329 93.1025V98.1025C250.09 98.1025 252.737 97.9771 255.268 97.7239L254.771 92.7487ZM247.329 93.1025C243.773 93.1025 240.806 94.4666 238.853 97.3406C237.017 100.042 236.284 103.78 236.284 108.176H241.284C241.284 104.19 241.976 101.641 242.988 100.151C243.883 98.834 245.189 98.1025 247.329 98.1025V93.1025ZM236.298 107.914C235.978 110.952 235.796 113.018 235.796 113.913H240.796C240.796 113.343 240.939 111.584 241.27 108.437L236.298 107.914ZM235.799 113.782L234.823 132.336L239.816 132.599L240.792 114.044L235.799 113.782ZM234.819 132.468V134.787H239.819V132.468H234.819ZM234.821 134.69L234.333 147.263L239.329 147.457L239.817 134.884L234.821 134.69ZM234.331 147.36V151.877H239.331V147.36H234.331ZM318.438 46.4082C318.438 58.6326 313.901 68.7369 304.748 76.89L308.074 80.6236C318.289 71.5242 323.438 60.0627 323.438 46.4082H318.438ZM304.76 76.8794C302.394 78.96 300.596 80.582 299.381 81.734C298.778 82.3053 298.287 82.7913 297.934 83.1747C297.763 83.3608 297.581 83.5695 297.426 83.7795C297.351 83.8816 297.243 84.0379 297.143 84.2295C297.084 84.3423 296.831 84.8192 296.831 85.4707H301.831C301.831 86.0815 301.597 86.5028 301.574 86.545C301.511 86.6661 301.458 86.7368 301.457 86.7385C301.45 86.7476 301.489 86.6956 301.613 86.5613C301.85 86.3038 302.244 85.9098 302.821 85.3622C303.966 84.2763 305.708 82.704 308.062 80.6343L304.76 76.8794ZM296.831 85.4707C296.831 86.2571 297.197 86.8047 297.269 86.9156C297.402 87.1203 297.543 87.2797 297.634 87.3778C297.824 87.5817 298.046 87.7782 298.249 87.949C298.67 88.3027 299.254 88.7463 299.97 89.2651C301.414 90.3118 303.553 91.778 306.367 93.6543L309.141 89.4941C306.34 87.6269 304.267 86.2042 302.904 85.2163C302.216 84.7179 301.747 84.3579 301.466 84.1216C301.318 83.9973 301.276 83.9522 301.291 83.968C301.295 83.9719 301.37 84.0507 301.459 84.1879C301.488 84.2315 301.831 84.725 301.831 85.4707H296.831ZM306.382 93.6642C318.921 101.896 325.151 113.59 325.151 129.05H330.151C330.151 111.958 323.116 98.6683 309.126 89.4843L306.382 93.6642ZM325.151 129.05C325.151 144.362 318.571 156.287 305.166 165.043L307.9 169.229C322.653 159.592 330.151 146.127 330.151 129.05H325.151ZM305.157 165.049C294.551 172.042 277.297 175.744 252.944 175.744V180.744C277.582 180.744 296.055 177.04 307.909 169.223L305.157 165.049ZM252.944 175.744H250.015V180.744H252.944V175.744ZM250.119 175.746L247.189 175.624L246.981 180.62L249.911 180.742L250.119 175.746ZM247.085 175.622H244.155V180.622H247.085V175.622ZM244.155 175.622C235.056 175.622 227.739 175.51 222.191 175.288C216.581 175.064 212.949 174.732 211.113 174.335L210.059 179.223C212.373 179.722 216.412 180.061 221.991 180.284C227.633 180.51 235.025 180.622 244.155 180.622V175.622ZM211.159 174.346C209.244 173.895 208.089 173.352 207.46 172.859C206.919 172.435 206.86 172.141 206.86 171.896H201.86C201.86 173.93 202.839 175.59 204.374 176.793C205.82 177.928 207.777 178.687 210.013 179.213L211.159 174.346ZM206.86 171.896V169.943H201.86V171.896H206.86ZM206.86 169.943C206.86 169.403 207.048 168.385 207.63 166.756C208.194 165.176 209.063 163.199 210.259 160.807L205.786 158.571C204.541 161.063 203.578 163.236 202.922 165.074C202.283 166.863 201.86 168.531 201.86 169.943H206.86ZM210.382 160.515C211.61 157.006 212.492 152.482 213.072 147.014L208.1 146.486C207.54 151.761 206.713 155.862 205.663 158.864L210.382 160.515ZM213.072 147.015C215.362 125.504 216.504 100.958 216.504 73.3857H211.504C211.504 100.827 210.367 125.19 208.1 146.485L213.072 147.015ZM216.502 73.4737L217.113 56.1397L212.116 55.9638L211.505 73.2978L216.502 73.4737ZM217.112 56.1604L217.356 50.5451L212.361 50.3279L212.117 55.9432L217.112 56.1604ZM217.358 50.4722L217.48 41.9273L212.481 41.8559L212.359 50.4008L217.358 50.4722ZM217.48 41.8916C217.48 34.1664 216.91 28.0376 215.679 23.6394L210.864 24.9876C211.911 28.7274 212.48 34.3174 212.48 41.8916H217.48ZM215.664 23.5885L214.443 19.5601L209.658 21.0102L210.879 25.0385L215.664 23.5885ZM214.451 19.5852C213.935 17.8176 213.696 16.2241 213.696 14.792H208.696C208.696 16.7779 209.027 18.8465 209.651 20.9852L214.451 19.5852ZM213.696 14.792C213.696 13.9772 213.96 13.3622 214.561 12.7948C215.237 12.1562 216.437 11.4992 218.415 10.9864L217.161 6.14641C214.744 6.77291 212.649 7.72322 211.128 9.15976C209.531 10.6676 208.696 12.5957 208.696 14.792H213.696ZM218.415 10.9864C222.456 9.93885 230.65 9.35742 243.301 9.35742V4.35742C230.724 4.35742 221.909 4.91532 217.161 6.14641L218.415 10.9864ZM243.409 9.35506L246.217 9.23299L246 4.23771L243.192 4.35978L243.409 9.35506ZM246.212 9.23318C248.131 9.15325 250.049 9.11328 251.968 9.11328V4.11328C249.98 4.11328 247.992 4.1547 246.004 4.23752L246.212 9.23318ZM252.019 9.11275L263.86 8.86861L263.757 3.86967L251.916 4.11381L252.019 9.11275ZM263.809 8.86914C282.636 8.86914 296.311 12.1818 305.22 18.4262C313.968 24.5569 318.438 33.738 318.438 46.4082H323.438C323.438 32.3857 318.386 21.5473 308.09 14.3316C297.957 7.22962 283.067 3.86914 263.809 3.86914V8.86914ZM426.895 151.022L424.839 149.599L424.834 149.606L424.83 149.613L426.895 151.022ZM428.481 82.4189L426.409 83.8168L426.418 83.8307L426.428 83.8445L428.481 82.4189ZM385.757 84.8604L383.698 83.4424L383.693 83.449L383.689 83.4556L385.757 84.8604ZM376.968 115.744L379.458 115.961L379.468 115.853V115.744H376.968ZM376.724 118.552L374.233 118.335L374.224 118.443V118.552H376.724ZM352.188 123.19L349.692 123.044L349.688 123.117V123.19H352.188ZM352.31 121.115L354.805 121.262L354.81 121.189V121.115H352.31ZM368.179 73.752L370.023 75.4401L370.031 75.4312L368.179 73.752ZM387.1 60.3242L388.033 62.6436L388.039 62.6408L388.046 62.6381L387.1 60.3242ZM434.097 60.6904L435.184 58.439L435.181 58.4379L434.097 60.6904ZM462.417 114.157L464.917 114.182L464.917 114.17V114.157H462.417ZM458.389 139.182L460.775 139.927L460.778 139.917L458.389 139.182ZM428.359 174.582L429.414 176.849L429.417 176.847L428.359 174.582ZM374.224 126.486C374.224 137.532 376.757 146.929 381.99 154.517L386.106 151.678C381.573 145.106 379.224 136.763 379.224 126.486H374.224ZM381.99 154.517C387.225 162.108 393.908 166.218 401.992 166.218V161.218C395.916 161.218 390.636 158.247 386.106 151.678L381.99 154.517ZM401.992 166.218H405.654V161.218H401.992V166.218ZM405.654 166.218C415.052 166.218 422.833 161.405 428.959 152.432L424.83 149.613C419.4 157.567 413.021 161.218 405.654 161.218V166.218ZM428.95 152.445C435.188 143.436 438.184 131.614 438.184 117.209H433.184C433.184 130.962 430.32 141.682 424.839 149.599L428.95 152.445ZM438.184 117.209V109.152H433.184V117.209H438.184ZM438.184 109.152C438.184 97.8873 435.702 88.4373 430.535 80.9934L426.428 83.8445C430.864 90.2352 433.184 98.6075 433.184 109.152H438.184ZM430.554 81.0211C425.439 73.436 418.606 69.4209 410.171 69.4209V74.4209C416.71 74.4209 422.084 77.4045 426.409 83.8168L430.554 81.0211ZM410.171 69.4209H407.729V74.4209H410.171V69.4209ZM407.729 69.4209C398.026 69.4209 389.997 74.2955 383.698 83.4424L387.816 86.2783C393.398 78.1726 400.018 74.4209 407.729 74.4209V69.4209ZM383.689 83.4556C377.508 92.555 374.468 103.356 374.468 115.744H379.468C379.468 104.206 382.287 94.4183 387.825 86.2651L383.689 83.4556ZM374.477 115.528L374.233 118.335L379.214 118.768L379.458 115.961L374.477 115.528ZM374.224 118.552V126.486H379.224V118.552H374.224ZM404.312 177.819H400.405V182.819H404.312V177.819ZM400.405 177.819C386.82 177.819 375.916 173.118 367.472 163.753L363.759 167.101C373.218 177.593 385.508 182.819 400.405 182.819V177.819ZM367.472 163.753C359.064 154.428 354.688 141.028 354.688 123.19H349.688C349.688 141.811 354.262 156.569 363.759 167.101L367.472 163.753ZM354.683 123.337L354.805 121.262L349.814 120.968L349.692 123.044L354.683 123.337ZM354.81 121.115C354.81 101.541 359.973 86.4179 370.023 75.4401L366.335 72.0638C355.226 84.198 349.81 100.65 349.81 121.115H354.81ZM370.031 75.4312C375.331 69.5851 381.331 65.3397 388.033 62.6436L386.167 58.0049C378.708 61.0053 372.094 65.7118 366.327 72.0727L370.031 75.4312ZM388.046 62.6381C394.967 59.8069 401.44 58.4297 407.485 58.4297V53.4297C400.673 53.4297 393.555 54.9822 386.153 58.0104L388.046 62.6381ZM407.485 58.4297H413.467V53.4297H407.485V58.4297ZM413.467 58.4297C420.244 58.4297 426.751 59.9284 433.012 62.9429L435.181 58.4379C428.259 55.1048 421.012 53.4297 413.467 53.4297V58.4297ZM433.01 62.9418C442.017 67.29 448.694 73.5113 453.146 81.6092C457.613 89.7346 459.917 99.8933 459.917 112.204H464.917C464.917 99.287 462.501 88.2462 457.528 79.2004C452.539 70.127 445.057 63.2055 435.184 58.4391L433.01 62.9418ZM459.917 112.204V114.157H464.917V112.204H459.917ZM459.917 114.132C459.838 122.093 458.538 130.195 455.999 138.446L460.778 139.917C463.448 131.241 464.833 122.66 464.917 114.182L459.917 114.132ZM456.002 138.437C450.987 154.501 441.428 165.719 427.301 172.317L429.417 176.847C444.913 169.61 455.374 157.228 460.775 139.927L456.002 138.437ZM427.305 172.315C419.363 176.011 411.706 177.819 404.312 177.819V182.819C412.542 182.819 420.917 180.803 429.414 176.849L427.305 172.315ZM559.219 151.022L557.163 149.599L557.159 149.606L557.154 149.613L559.219 151.022ZM560.806 82.4189L558.733 83.8168L558.742 83.8307L558.752 83.8445L560.806 82.4189ZM518.081 84.8604L516.022 83.4424L516.018 83.449L516.013 83.4556L518.081 84.8604ZM509.292 115.744L511.783 115.961L511.792 115.853V115.744H509.292ZM509.048 118.552L506.557 118.335L506.548 118.443V118.552H509.048ZM484.512 123.19L482.016 123.044L482.012 123.117V123.19H484.512ZM484.634 121.115L487.129 121.262L487.134 121.189V121.115H484.634ZM500.503 73.752L502.347 75.4401L502.355 75.4312L500.503 73.752ZM519.424 60.3242L520.357 62.6436L520.364 62.6408L520.37 62.6381L519.424 60.3242ZM566.421 60.6904L567.508 58.439L567.505 58.4379L566.421 60.6904ZM594.741 114.157L597.241 114.182L597.241 114.17V114.157H594.741ZM590.713 139.182L593.099 139.927L593.102 139.917L590.713 139.182ZM560.684 174.582L561.738 176.849L561.741 176.847L560.684 174.582ZM506.548 126.486C506.548 137.532 509.081 146.929 514.314 154.517L518.43 151.678C513.898 145.106 511.548 136.763 511.548 126.486H506.548ZM514.314 154.517C519.55 162.108 526.232 166.218 534.316 166.218V161.218C528.24 161.218 522.96 158.247 518.43 151.678L514.314 154.517ZM534.316 166.218H537.979V161.218H534.316V166.218ZM537.979 166.218C547.376 166.218 555.158 161.405 561.283 152.432L557.154 149.613C551.724 157.567 545.345 161.218 537.979 161.218V166.218ZM561.274 152.445C567.512 143.436 570.508 131.614 570.508 117.209H565.508C565.508 130.962 562.644 141.682 557.163 149.599L561.274 152.445ZM570.508 117.209V109.152H565.508V117.209H570.508ZM570.508 109.152C570.508 97.8873 568.026 88.4373 562.859 80.9934L558.752 83.8445C563.188 90.2352 565.508 98.6075 565.508 109.152H570.508ZM562.878 81.0211C557.763 73.436 550.93 69.4209 542.495 69.4209V74.4209C549.034 74.4209 554.408 77.4045 558.733 83.8168L562.878 81.0211ZM542.495 69.4209H540.054V74.4209H542.495V69.4209ZM540.054 69.4209C530.35 69.4209 522.321 74.2955 516.022 83.4424L520.14 86.2783C525.722 78.1726 532.342 74.4209 540.054 74.4209V69.4209ZM516.013 83.4556C509.832 92.555 506.792 103.356 506.792 115.744H511.792C511.792 104.206 514.611 94.4183 520.149 86.2651L516.013 83.4556ZM506.801 115.528L506.557 118.335L511.538 118.768L511.783 115.961L506.801 115.528ZM506.548 118.552V126.486H511.548V118.552H506.548ZM536.636 177.819H532.729V182.819H536.636V177.819ZM532.729 177.819C519.144 177.819 508.24 173.118 499.796 163.753L496.083 167.101C505.542 177.593 517.832 182.819 532.729 182.819V177.819ZM499.796 163.753C491.389 154.428 487.012 141.028 487.012 123.19H482.012C482.012 141.811 486.587 156.569 496.083 167.101L499.796 163.753ZM487.007 123.337L487.129 121.262L482.138 120.968L482.016 123.044L487.007 123.337ZM487.134 121.115C487.134 101.541 492.297 86.4179 502.347 75.4401L498.659 72.0638C487.55 84.198 482.134 100.65 482.134 121.115H487.134ZM502.355 75.4312C507.655 69.5851 513.655 65.3397 520.357 62.6436L518.491 58.0049C511.033 61.0053 504.418 65.7118 498.651 72.0727L502.355 75.4312ZM520.37 62.6381C527.291 59.8069 533.764 58.4297 539.81 58.4297V53.4297C532.997 53.4297 525.879 54.9822 518.477 58.0104L520.37 62.6381ZM539.81 58.4297H545.791V53.4297H539.81V58.4297ZM545.791 58.4297C552.569 58.4297 559.075 59.9284 565.336 62.9429L567.505 58.4379C560.583 55.1048 553.336 53.4297 545.791 53.4297V58.4297ZM565.334 62.9418C574.341 67.29 581.018 73.5113 585.47 81.6092C589.937 89.7346 592.241 99.8933 592.241 112.204H597.241C597.241 99.287 594.825 88.2462 589.852 79.2004C584.864 70.127 577.381 63.2055 567.508 58.4391L565.334 62.9418ZM592.241 112.204V114.157H597.241V112.204H592.241ZM592.241 114.132C592.163 122.093 590.862 130.195 588.323 138.446L593.102 139.917C595.772 131.241 597.157 122.66 597.241 114.182L592.241 114.132ZM588.326 138.437C583.311 154.501 573.752 165.719 559.626 172.317L561.741 176.847C577.237 169.61 587.698 157.228 593.099 139.927L588.326 138.437ZM559.629 172.315C551.687 176.011 544.03 177.819 536.636 177.819V182.819C544.867 182.819 553.241 180.803 561.738 176.849L559.629 172.315ZM624.771 172.019L623.17 173.939L623.189 173.955L623.209 173.971L624.771 172.019ZM626.602 96.335L629.099 96.4436L629.099 96.4433L626.602 96.335ZM628.066 24.0693L625.593 24.4357L625.601 24.4888L625.611 24.5415L628.066 24.0693ZM626.357 16.1348L623.925 16.7109L623.932 16.7411L623.94 16.771L626.357 16.1348ZM628.799 2.95117L630.007 5.14012L630.019 5.13324L630.031 5.12623L628.799 2.95117ZM652.114 5.27051L649.981 6.57413L649.994 6.59544L650.008 6.61648L652.114 5.27051ZM654.922 22.9707L657.421 23.0473L657.422 23.009V22.9707H654.922ZM653.335 74.7285L650.836 74.6519L650.835 74.6902V74.7285H653.335ZM678.237 80.3438L676.43 78.6163L676.423 78.6233L678.237 80.3438ZM694.473 63.498L695.859 65.5782L695.883 65.5624L695.906 65.5461L694.473 63.498ZM705.581 142.844L703.527 144.268L703.53 144.274L705.581 142.844ZM717.788 158.957L715.873 160.564L715.889 160.583L715.905 160.601L717.788 158.957ZM694.961 168.234L693.124 169.93L693.133 169.94L693.142 169.95L694.961 168.234ZM680.557 144.675L682.7 143.389L682.689 143.37L682.677 143.351L680.557 144.675ZM663.345 122.033C660.927 122.033 658.755 122.852 656.94 124.449C655.176 126.002 653.852 128.196 652.859 130.819C650.884 136.032 649.98 143.571 649.98 153.22H654.98C654.98 143.744 655.887 136.939 657.534 132.59C658.351 130.433 659.292 129.04 660.243 128.203C661.144 127.41 662.141 127.033 663.345 127.033V122.033ZM649.98 153.22C649.98 161.36 648.269 165.988 645.727 168.167L648.98 171.964C653.274 168.284 654.98 161.681 654.98 153.22H649.98ZM645.727 168.167C642.793 170.681 639.272 171.96 635.024 171.96V176.96C640.38 176.96 645.078 175.309 648.98 171.964L645.727 168.167ZM635.024 171.96C630.371 171.96 627.68 171.145 626.332 170.066L623.209 173.971C625.93 176.147 630.075 176.96 635.024 176.96V171.96ZM626.371 170.098C625.3 169.206 624.341 167.133 624.341 162.863H619.341C619.341 167.545 620.335 171.576 623.17 173.939L626.371 170.098ZM624.341 162.863C624.341 162.982 624.338 162.923 624.405 162.391C624.459 161.964 624.541 161.353 624.653 160.553C624.875 158.955 625.21 156.633 625.657 153.583L620.71 152.857C620.262 155.91 619.925 158.247 619.7 159.863C619.588 160.671 619.502 161.306 619.444 161.764C619.4 162.116 619.341 162.582 619.341 162.863H624.341ZM625.657 153.583C626.576 147.319 627.719 128.194 629.099 96.4436L624.104 96.2264C622.717 128.115 621.582 146.913 620.71 152.857L625.657 153.583ZM629.099 96.4433C630.482 64.5668 631.177 45.0108 631.177 37.8633H626.177C626.177 44.8759 625.488 64.3011 624.104 96.2266L629.099 96.4433ZM631.177 37.8633C631.177 30.84 630.982 25.9911 630.521 23.5972L625.611 24.5415C625.965 26.3793 626.177 30.7264 626.177 37.8633H631.177ZM630.539 23.703C630.196 21.3849 629.603 18.6449 628.775 15.4985L623.94 16.771C624.739 19.8096 625.286 22.3592 625.593 24.4357L630.539 23.703ZM628.79 15.5586C628.428 14.031 628.164 12.812 627.991 11.8899C627.807 10.9104 627.759 10.4248 627.759 10.2754H622.759C622.759 10.9398 622.894 11.8376 623.076 12.8113C623.27 13.8423 623.554 15.1461 623.925 16.7109L628.79 15.5586ZM627.759 10.2754C627.759 7.26132 628.705 5.85807 630.007 5.14012L627.591 0.762228C624.172 2.64844 622.759 6.128 622.759 10.2754H627.759ZM630.031 5.12623C631.878 4.07986 635.348 3.37598 640.884 3.37598V-1.62402C635.189 -1.62402 630.603 -0.944439 627.566 0.776116L630.031 5.12623ZM640.884 3.37598C646.301 3.37598 648.885 4.78123 649.981 6.57413L654.247 3.96688C651.762 -0.0995899 646.86 -1.62402 640.884 -1.62402V3.37598ZM650.008 6.61648C650.671 7.65448 651.304 9.4646 651.751 12.2845C652.191 15.0591 652.422 18.6102 652.422 22.9707H657.422C657.422 18.4608 657.185 14.6266 656.689 11.5012C656.201 8.42098 655.43 5.81622 654.221 3.92453L650.008 6.61648ZM652.423 22.8941L650.836 74.6519L655.834 74.8051L657.421 23.0473L652.423 22.8941ZM650.835 74.7285C650.835 82.1807 651.261 87.9657 652.181 91.9533C652.637 93.9304 653.26 95.6746 654.163 96.9798C655.107 98.3432 656.536 99.4453 658.462 99.4453V94.4453C658.679 94.4453 658.612 94.6217 658.274 94.1337C657.896 93.5875 657.451 92.5546 657.053 90.829C656.264 87.411 655.835 82.0875 655.835 74.7285H650.835ZM658.462 99.4453C659.849 99.4453 661.262 98.7869 662.489 98.0548C663.811 97.2665 665.329 96.1351 667.027 94.7096C670.43 91.8527 674.778 87.623 680.051 82.0642L676.423 78.6233C671.198 84.1322 667.001 88.2033 663.812 90.8802C662.215 92.2217 660.926 93.1654 659.928 93.7607C658.836 94.412 658.417 94.4453 658.462 94.4453V99.4453ZM680.044 82.0712C685.334 76.538 689.329 72.3702 692.031 69.5664C693.383 68.1638 694.407 67.1064 695.107 66.3913C695.458 66.0327 695.721 65.7666 695.901 65.5883C695.992 65.4979 696.052 65.4395 696.087 65.4063C696.206 65.2935 696.064 65.4416 695.859 65.5782L693.086 61.4179C692.916 61.531 692.785 61.6504 692.775 61.6598C692.728 61.7014 692.683 61.7434 692.646 61.7787C692.57 61.851 692.478 61.9407 692.377 62.041C692.172 62.2442 691.89 62.53 691.534 62.8937C690.82 63.623 689.785 64.6916 688.431 66.0967C685.721 68.9081 681.72 73.0818 676.43 78.6163L680.044 82.0712ZM695.906 65.5461C698.546 63.6984 702.858 62.5801 709.243 62.5801V57.5801C702.444 57.5801 696.91 58.7404 693.039 61.45L695.906 65.5461ZM709.243 62.5801C712.414 62.5801 714.423 62.9846 715.552 63.5424C716.082 63.804 716.325 64.054 716.441 64.2253C716.545 64.3795 716.631 64.593 716.631 64.9629H721.631C721.631 63.7052 721.305 62.4945 720.585 61.428C719.877 60.3786 718.884 59.6114 717.766 59.0592C715.599 57.9894 712.664 57.5801 709.243 57.5801V62.5801ZM716.631 64.9629C716.631 64.6163 716.736 64.5006 716.602 64.8003C716.501 65.0272 716.317 65.3722 716.019 65.8547C715.427 66.8149 714.5 68.1307 713.207 69.8242C710.629 73.2009 706.732 77.9057 701.494 83.9564L705.274 87.2291C710.533 81.1542 714.51 76.3579 717.181 72.8579C718.513 71.1131 719.554 69.6467 720.274 68.4809C720.632 67.9003 720.941 67.3464 721.168 66.8383C721.362 66.403 721.631 65.7164 721.631 64.9629H716.631ZM701.494 83.9564C696.193 90.0785 692.15 95.4652 689.419 100.102C686.726 104.673 685.137 108.799 685.137 112.326H690.137C690.137 110.157 691.172 106.979 693.728 102.639C696.246 98.3643 700.076 93.2327 705.274 87.2291L701.494 83.9564ZM685.137 112.326C685.137 113.689 685.731 115.342 686.479 117.001C687.279 118.775 688.451 120.963 689.968 123.542C693.005 128.708 697.532 135.624 703.527 144.268L707.635 141.419C701.667 132.811 697.222 126.014 694.278 121.008C692.804 118.501 691.732 116.487 691.037 114.945C690.69 114.175 690.453 113.559 690.307 113.083C690.234 112.847 690.189 112.664 690.164 112.527C690.137 112.387 690.137 112.326 690.137 112.326H685.137ZM703.53 144.274C707.876 150.504 711.99 155.937 715.873 160.564L719.703 157.35C715.937 152.862 711.913 147.553 707.632 141.414L703.53 144.274ZM715.905 160.601C717.811 162.785 719.174 164.587 720.046 166.023C720.969 167.541 721.147 168.339 721.147 168.601H726.147C726.147 166.909 725.35 165.123 724.319 163.427C723.239 161.648 721.672 159.605 719.672 157.313L715.905 160.601ZM721.147 168.601C721.147 169.216 721.009 169.637 720.813 169.954C720.612 170.277 720.262 170.634 719.625 170.976C718.278 171.701 715.937 172.204 712.295 172.204V177.204C716.221 177.204 719.556 176.69 721.993 175.38C723.249 174.705 724.317 173.79 725.063 172.588C725.812 171.379 726.147 170.02 726.147 168.601H721.147ZM712.295 172.204C705.304 172.204 700.259 170.207 696.779 166.519L693.142 169.95C697.801 174.888 704.312 177.204 712.295 177.204V172.204ZM696.798 166.539C696.486 166.201 695.787 165.233 694.629 163.413C693.513 161.659 692.065 159.268 690.281 156.227L685.969 158.757C687.766 161.82 689.248 164.271 690.41 166.098C691.531 167.858 692.459 169.21 693.124 169.93L696.798 166.539ZM690.281 156.227C686.701 150.124 684.172 145.842 682.7 143.389L678.413 145.961C679.871 148.391 682.388 152.653 685.969 158.757L690.281 156.227ZM682.677 143.351C678.463 136.6 674.856 131.442 671.868 127.944C670.377 126.2 668.977 124.793 667.673 123.802C666.439 122.864 664.952 122.033 663.345 122.033V127.033C663.284 127.033 663.674 127.042 664.647 127.782C665.551 128.47 666.688 129.58 668.066 131.193C670.815 134.409 674.268 139.322 678.436 145.999L682.677 143.351ZM760.513 109.885L758.731 111.638L758.745 111.653L758.759 111.667L760.513 109.885ZM765.273 65.207L766.835 67.1592L766.841 67.1545L766.847 67.1497L765.273 65.207ZM824.111 59.8359L823.029 62.0893L823.04 62.0947L824.111 59.8359ZM813.979 77.4141L812.828 79.633L812.839 79.6388L812.85 79.6445L813.979 77.4141ZM781.997 76.3154L783.482 78.3269L783.49 78.321L781.997 76.3154ZM784.072 98.5322L785.514 96.4898L785.506 96.4845L785.499 96.4793L784.072 98.5322ZM803.604 107.81L802.65 110.121L802.656 110.123L803.604 107.81ZM825.698 120.017L824.037 121.885L824.041 121.889L825.698 120.017ZM823.867 169.211L825.468 171.131L825.473 171.127L825.479 171.122L823.867 169.211ZM758.315 173.85L757.052 176.007L757.062 176.013L757.072 176.019L758.315 173.85ZM769.424 155.905L768.116 158.036L768.127 158.043L769.424 155.905ZM806.411 158.103L808.016 160.019L808.029 160.009L808.042 159.998L806.411 158.103ZM805.068 134.909L803.515 136.868L803.524 136.875L803.534 136.883L805.068 134.909ZM784.805 124.777L783.788 127.061L783.795 127.064L783.802 127.067L784.805 124.777ZM762.295 108.131C757.912 103.677 755.566 97.3 755.566 88.6445H750.566C750.566 98.2182 753.185 106.001 758.731 111.638L762.295 108.131ZM755.566 88.6445C755.566 80.4043 759.194 73.2719 766.835 67.1592L763.712 63.2549C755.077 70.163 750.566 78.6556 750.566 88.6445H755.566ZM766.847 67.1497C774.474 60.9716 783.985 57.8193 795.547 57.8193V52.8193C783.02 52.8193 772.349 56.2589 763.7 63.2644L766.847 67.1497ZM795.547 57.8193H798.721V52.8193H795.547V57.8193ZM798.721 57.8193C809.188 57.8193 817.232 59.304 823.029 62.0893L825.194 57.5826C818.458 54.3457 809.575 52.8193 798.721 52.8193V57.8193ZM823.04 62.0947C825.928 63.4646 827.927 65.0979 829.207 66.9191C830.471 68.7179 831.133 70.84 831.133 73.3857H836.133C836.133 69.9093 835.208 66.762 833.298 64.0443C831.404 61.3489 828.642 59.2183 825.183 57.5772L823.04 62.0947ZM831.133 73.3857C831.133 76.0376 830.536 77.5596 829.782 78.4066C829.077 79.1983 827.878 79.7969 825.698 79.7969V84.7969C828.808 84.7969 831.576 83.9103 833.516 81.7316C835.407 79.6082 836.133 76.6746 836.133 73.3857H831.133ZM825.698 79.7969C825.742 79.7969 825.534 79.7903 824.923 79.6023C824.367 79.4313 823.629 79.1588 822.692 78.7685C820.822 77.9891 818.301 76.7998 815.109 75.1837L812.85 79.6445C816.087 81.2835 818.734 82.5356 820.769 83.3839C821.786 83.8073 822.686 84.1452 823.452 84.3811C824.164 84.6 824.963 84.7969 825.698 84.7969V79.7969ZM815.131 75.1951C808.44 71.7227 801.983 69.9092 795.791 69.9092V74.9092C800.993 74.9092 806.661 76.4322 812.828 79.633L815.131 75.1951ZM795.791 69.9092C789.721 69.9092 784.551 71.2987 780.505 74.3098L783.49 78.321C786.442 76.1238 790.468 74.9092 795.791 74.9092V69.9092ZM780.512 74.304C776.417 77.3269 774.37 81.5938 774.37 86.8135H779.37C779.37 83.0814 780.741 80.3495 783.482 78.3269L780.512 74.304ZM774.37 86.8135C774.37 92.3515 777.4 96.9399 782.646 100.585L785.499 96.4793C781.142 93.4514 779.37 90.2273 779.37 86.8135H774.37ZM782.631 100.575C785.669 102.72 792.457 105.914 802.65 110.121L804.557 105.499C794.242 101.241 788.009 98.251 785.514 96.4898L782.631 100.575ZM802.656 110.123C812.921 114.326 819.967 118.267 824.037 121.885L827.359 118.148C822.641 113.954 814.956 109.757 804.551 105.496L802.656 110.123ZM824.041 121.889C830.566 127.663 833.818 134.988 833.818 144.064H838.818C838.818 133.61 834.991 124.903 827.355 118.145L824.041 121.889ZM833.818 144.064C833.818 153.005 830.064 160.716 822.256 167.3L825.479 171.122C834.272 163.708 838.818 154.655 838.818 144.064H833.818ZM822.267 167.29C814.511 173.754 804.336 177.087 791.519 177.087V182.087C805.231 182.087 816.622 178.503 825.468 171.131L822.267 167.29ZM791.519 177.087H788.345V182.087H791.519V177.087ZM788.345 177.087C775.155 177.087 765.668 175.183 759.559 171.681L757.072 176.019C764.309 180.166 774.841 182.087 788.345 182.087V177.087ZM759.578 171.692C753.449 168.104 750.806 163.779 750.806 158.713H745.806C745.806 166.016 749.836 171.783 757.052 176.007L759.578 171.692ZM750.806 158.713C750.806 155.864 751.407 154.193 752.181 153.261C752.882 152.418 754.033 151.813 756.118 151.813V146.813C752.995 146.813 750.24 147.775 748.336 150.065C746.506 152.267 745.806 155.295 745.806 158.713H750.806ZM756.118 151.813C756.104 151.813 756.372 151.83 757.069 152.079C757.712 152.309 758.555 152.676 759.617 153.202C761.736 154.252 764.562 155.855 768.116 158.036L770.731 153.774C767.124 151.561 764.152 149.868 761.836 148.721C760.68 148.148 759.646 147.691 758.753 147.371C757.914 147.071 756.987 146.813 756.118 146.813V151.813ZM768.127 158.043C775.673 162.621 783.197 164.997 790.664 164.997V159.997C784.297 159.997 777.66 157.978 770.721 153.768L768.127 158.043ZM790.664 164.997C797.951 164.997 803.881 163.481 808.016 160.019L804.806 156.186C801.943 158.583 797.375 159.997 790.664 159.997V164.997ZM808.042 159.998C812.073 156.529 814.16 152.102 814.16 146.872H809.16C809.16 150.594 807.748 153.654 804.781 156.208L808.042 159.998ZM814.16 146.872C814.16 141.371 811.457 136.711 806.603 132.936L803.534 136.883C807.469 139.943 809.16 143.258 809.16 146.872H814.16ZM806.622 132.95C805.215 131.834 802.72 130.421 799.35 128.736C795.92 127.021 791.401 124.937 785.808 122.487L783.802 127.067C789.358 129.501 793.791 131.547 797.114 133.208C800.5 134.901 802.562 136.112 803.515 136.868L806.622 132.95ZM785.822 122.494C774.777 117.576 766.997 112.758 762.266 108.103L758.759 111.667C764.119 116.94 772.534 122.05 783.788 127.061L785.822 122.494Z" fill="white"/>
</g>
<defs>
<filter id="filter0_d_0_1" x="0.869141" y="0.875977" width="851.449" height="201.443" filterUnits="userSpaceOnUse" color-interpolation-filters="sRGB">
<feFlood flood-opacity="0" result="BackgroundImageFix"/>
<feColorMatrix in="SourceAlpha" type="matrix" values="0 0 0 0 0 0 0 0 0 0 0 0 0 0 0 0 0 0 127 0" result="hardAlpha"/>
<feOffset dx="12" dy="18"/>
<feGaussianBlur stdDeviation="2"/>
<feComposite in2="hardAlpha" operator="out"/>
<feColorMatrix type="matrix" values="0 0 0 0 0 0 0 0 0 0 0 0 0 0 0 0 0 0 0.25 0"/>
<feBlend mode="normal" in2="BackgroundImageFix" result="effect1_dropShadow_0_1"/>
<feBlend mode="normal" in="SourceGraphic" in2="effect1_dropShadow_0_1" result="shape"/>
</filter>
</defs>
</svg>
